<mxfile host="app.diagrams.net" modified="2023-03-08T07:18:30.132Z" agent="5.0 (Windows NT 10.0; Win64; x64) AppleWebKit/537.36 (KHTML, like Gecko) Chrome/107.0.0.0 Safari/537.36" etag="xW9JGm7bMyJAjeoJjG4k" version="21.0.1" type="github">
  <diagram name="第 1 页" id="yvUWGEL02yEKHM-XBLOZ">
    <mxGraphModel dx="2261" dy="1869" grid="1" gridSize="10" guides="1" tooltips="1" connect="1" arrows="1" fold="1" page="1" pageScale="1" pageWidth="827" pageHeight="1169" math="0" shadow="0">
      <root>
        <mxCell id="0" />
        <mxCell id="1" parent="0" />
        <mxCell id="SgWflcFPjo7BXx8ql38D-104" value="" style="rounded=0;whiteSpace=wrap;html=1;fillColor=#dae8fc;gradientColor=#7ea6e0;strokeColor=#6c8ebf;" parent="1" vertex="1">
          <mxGeometry x="-550" y="-200" width="500" height="317.79" as="geometry" />
        </mxCell>
        <mxCell id="SgWflcFPjo7BXx8ql38D-105" value="检查TOKEN" style="shape=rhombus;perimeter=rhombusPerimeter;whiteSpace=wrap;html=1;align=center;fillColor=#fff2cc;gradientColor=#ffd966;strokeColor=#d6b656;" parent="1" vertex="1">
          <mxGeometry x="-193.51999999999998" y="-12.139999999999986" width="120" height="60" as="geometry" />
        </mxCell>
        <mxCell id="SgWflcFPjo7BXx8ql38D-106" value="MySql8主从  " style="swimlane;fontStyle=0;childLayout=stackLayout;horizontal=1;startSize=26;horizontalStack=0;resizeParent=1;resizeParentMax=0;resizeLast=0;collapsible=1;marginBottom=0;align=center;fontSize=15;fillColor=#dae8fc;gradientColor=#7ea6e0;strokeColor=#6c8ebf;" parent="1" vertex="1">
          <mxGeometry x="-540" y="-168.93000000000006" width="222.97" height="266.85637823371985" as="geometry" />
        </mxCell>
        <mxCell id="SgWflcFPjo7BXx8ql38D-107" value="测试自建124.71.79.125:6006/user_mate_db" style="text;strokeColor=#82b366;fillColor=#d5e8d4;spacingLeft=4;spacingRight=4;overflow=hidden;rotatable=0;points=[[0,0.5],[1,0.5]];portConstraint=eastwest;fontSize=10;gradientColor=#97d077;align=center;" parent="SgWflcFPjo7BXx8ql38D-106" vertex="1">
          <mxGeometry y="26" width="222.97" height="26.761819803746654" as="geometry" />
        </mxCell>
        <mxCell id="SgWflcFPjo7BXx8ql38D-108" value="生产云托管110.412.2.160:6008/web_db" style="text;strokeColor=#6c8ebf;fillColor=#dae8fc;spacingLeft=4;spacingRight=4;overflow=hidden;rotatable=0;points=[[0,0.5],[1,0.5]];portConstraint=eastwest;fontSize=10;gradientColor=#7ea6e0;align=center;" parent="SgWflcFPjo7BXx8ql38D-106" vertex="1">
          <mxGeometry y="52.761819803746654" width="222.97" height="26.761819803746654" as="geometry" />
        </mxCell>
        <mxCell id="SgWflcFPjo7BXx8ql38D-109" value="商户cst_no" style="text;strokeColor=#82b366;fillColor=#d5e8d4;spacingLeft=4;spacingRight=4;overflow=hidden;rotatable=0;points=[[0,0.5],[1,0.5]];portConstraint=eastwest;fontSize=12;gradientColor=#97d077;align=center;" parent="SgWflcFPjo7BXx8ql38D-106" vertex="1">
          <mxGeometry y="79.52363960749331" width="222.97" height="26.761819803746654" as="geometry" />
        </mxCell>
        <mxCell id="SgWflcFPjo7BXx8ql38D-110" value="用户_user_id" style="text;strokeColor=#b85450;fillColor=#f8cecc;spacingLeft=4;spacingRight=4;overflow=hidden;rotatable=0;points=[[0,0.5],[1,0.5]];portConstraint=eastwest;fontSize=12;gradientColor=#ea6b66;align=center;" parent="SgWflcFPjo7BXx8ql38D-106" vertex="1">
          <mxGeometry y="106.28545941123997" width="222.97" height="26.761819803746654" as="geometry" />
        </mxCell>
        <mxCell id="SgWflcFPjo7BXx8ql38D-111" value="权限" style="text;strokeColor=#d6b656;fillColor=#fff2cc;spacingLeft=4;spacingRight=4;overflow=hidden;rotatable=0;points=[[0,0.5],[1,0.5]];portConstraint=eastwest;fontSize=12;gradientColor=#ffd966;align=center;" parent="SgWflcFPjo7BXx8ql38D-106" vertex="1">
          <mxGeometry y="133.04727921498662" width="222.97" height="26.761819803746654" as="geometry" />
        </mxCell>
        <mxCell id="SgWflcFPjo7BXx8ql38D-112" value="卡iccid" style="text;strokeColor=#d79b00;fillColor=#ffcd28;spacingLeft=4;spacingRight=4;overflow=hidden;rotatable=0;points=[[0,0.5],[1,0.5]];portConstraint=eastwest;fontSize=12;gradientColor=#ffa500;align=center;" parent="SgWflcFPjo7BXx8ql38D-106" vertex="1">
          <mxGeometry y="159.80909901873326" width="222.97" height="26.761819803746654" as="geometry" />
        </mxCell>
        <mxCell id="SgWflcFPjo7BXx8ql38D-113" value="设备did" style="text;strokeColor=#82b366;fillColor=#d5e8d4;spacingLeft=4;spacingRight=4;overflow=hidden;rotatable=0;points=[[0,0.5],[1,0.5]];portConstraint=eastwest;fontSize=12;gradientColor=#97d077;align=center;" parent="SgWflcFPjo7BXx8ql38D-106" vertex="1">
          <mxGeometry y="186.5709188224799" width="222.97" height="26.761819803746654" as="geometry" />
        </mxCell>
        <mxCell id="SgWflcFPjo7BXx8ql38D-114" value="消息" style="text;strokeColor=#b85450;fillColor=#f8cecc;spacingLeft=4;spacingRight=4;overflow=hidden;rotatable=0;points=[[0,0.5],[1,0.5]];portConstraint=eastwest;fontSize=12;gradientColor=#ea6b66;align=center;" parent="SgWflcFPjo7BXx8ql38D-106" vertex="1">
          <mxGeometry y="213.33273862622656" width="222.97" height="26.761819803746654" as="geometry" />
        </mxCell>
        <mxCell id="SgWflcFPjo7BXx8ql38D-115" value="业务行为日志" style="text;strokeColor=#d79b00;fillColor=#ffcd28;spacingLeft=4;spacingRight=4;overflow=hidden;rotatable=0;points=[[0,0.5],[1,0.5]];portConstraint=eastwest;fontSize=12;gradientColor=#ffa500;align=center;" parent="SgWflcFPjo7BXx8ql38D-106" vertex="1">
          <mxGeometry y="240.0945584299732" width="222.97" height="26.761819803746654" as="geometry" />
        </mxCell>
        <mxCell id="SgWflcFPjo7BXx8ql38D-116" value="" style="edgeStyle=entityRelationEdgeStyle;fontSize=12;html=1;endArrow=ERzeroToMany;endFill=1;rounded=0;exitX=1;exitY=0.5;exitDx=0;exitDy=0;" parent="SgWflcFPjo7BXx8ql38D-106" source="SgWflcFPjo7BXx8ql38D-109" target="SgWflcFPjo7BXx8ql38D-113" edge="1">
          <mxGeometry width="100" height="100" relative="1" as="geometry">
            <mxPoint x="344.5945945945946" y="133.8090990187333" as="sourcePoint" />
            <mxPoint x="482.4324324324324" y="44.603033006244424" as="targetPoint" />
          </mxGeometry>
        </mxCell>
        <mxCell id="SgWflcFPjo7BXx8ql38D-117" value="" style="edgeStyle=entityRelationEdgeStyle;fontSize=12;html=1;endArrow=ERzeroToMany;endFill=1;rounded=0;exitX=1;exitY=0.5;exitDx=0;exitDy=0;" parent="SgWflcFPjo7BXx8ql38D-106" source="SgWflcFPjo7BXx8ql38D-109" target="SgWflcFPjo7BXx8ql38D-113" edge="1">
          <mxGeometry width="100" height="100" relative="1" as="geometry">
            <mxPoint x="330.8108108108108" y="133.8090990187333" as="sourcePoint" />
            <mxPoint x="468.64864864864865" y="44.603033006244424" as="targetPoint" />
          </mxGeometry>
        </mxCell>
        <mxCell id="SgWflcFPjo7BXx8ql38D-118" value="" style="edgeStyle=entityRelationEdgeStyle;fontSize=12;html=1;endArrow=ERzeroToMany;endFill=1;rounded=0;exitX=1;exitY=0.5;exitDx=0;exitDy=0;" parent="SgWflcFPjo7BXx8ql38D-106" source="SgWflcFPjo7BXx8ql38D-109" target="SgWflcFPjo7BXx8ql38D-112" edge="1">
          <mxGeometry width="100" height="100" relative="1" as="geometry">
            <mxPoint x="358.37837837837833" y="205.17395182872437" as="sourcePoint" />
            <mxPoint x="496.2162162162162" y="115.96788581623551" as="targetPoint" />
          </mxGeometry>
        </mxCell>
        <mxCell id="SgWflcFPjo7BXx8ql38D-119" value="管理" style="edgeLabel;html=1;align=center;verticalAlign=middle;resizable=0;points=[];" parent="SgWflcFPjo7BXx8ql38D-118" vertex="1" connectable="0">
          <mxGeometry x="-0.3143" y="2" relative="1" as="geometry">
            <mxPoint x="-15" y="-18" as="offset" />
          </mxGeometry>
        </mxCell>
        <mxCell id="SgWflcFPjo7BXx8ql38D-120" value="" style="edgeStyle=entityRelationEdgeStyle;fontSize=12;html=1;endArrow=ERzeroToMany;endFill=1;rounded=0;exitX=1;exitY=0.5;exitDx=0;exitDy=0;entryX=1;entryY=0.5;entryDx=0;entryDy=0;" parent="SgWflcFPjo7BXx8ql38D-106" source="SgWflcFPjo7BXx8ql38D-110" target="SgWflcFPjo7BXx8ql38D-112" edge="1">
          <mxGeometry width="100" height="100" relative="1" as="geometry">
            <mxPoint x="372.16216216216213" y="231.93577163247102" as="sourcePoint" />
            <mxPoint y="169.49152542372883" as="targetPoint" />
          </mxGeometry>
        </mxCell>
        <mxCell id="SgWflcFPjo7BXx8ql38D-121" value="操作" style="edgeLabel;html=1;align=center;verticalAlign=middle;resizable=0;points=[];" parent="SgWflcFPjo7BXx8ql38D-120" vertex="1" connectable="0">
          <mxGeometry x="-0.7352" relative="1" as="geometry">
            <mxPoint as="offset" />
          </mxGeometry>
        </mxCell>
        <mxCell id="SgWflcFPjo7BXx8ql38D-122" value="" style="edgeStyle=entityRelationEdgeStyle;fontSize=12;html=1;endArrow=ERmany;startArrow=ERmany;rounded=0;exitX=1;exitY=0.5;exitDx=0;exitDy=0;entryX=1;entryY=0.5;entryDx=0;entryDy=0;" parent="SgWflcFPjo7BXx8ql38D-106" source="SgWflcFPjo7BXx8ql38D-111" target="SgWflcFPjo7BXx8ql38D-113" edge="1">
          <mxGeometry width="100" height="100" relative="1" as="geometry">
            <mxPoint x="300" y="136" as="sourcePoint" />
            <mxPoint x="400" y="36" as="targetPoint" />
          </mxGeometry>
        </mxCell>
        <mxCell id="SgWflcFPjo7BXx8ql38D-123" value="控制" style="edgeLabel;html=1;align=center;verticalAlign=middle;resizable=0;points=[];" parent="SgWflcFPjo7BXx8ql38D-122" vertex="1" connectable="0">
          <mxGeometry x="-0.7176" relative="1" as="geometry">
            <mxPoint as="offset" />
          </mxGeometry>
        </mxCell>
        <mxCell id="SgWflcFPjo7BXx8ql38D-124" style="edgeStyle=orthogonalEdgeStyle;rounded=0;orthogonalLoop=1;jettySize=auto;html=1;entryX=0.5;entryY=1;entryDx=0;entryDy=0;" parent="1" source="SgWflcFPjo7BXx8ql38D-125" target="SgWflcFPjo7BXx8ql38D-105" edge="1">
          <mxGeometry relative="1" as="geometry" />
        </mxCell>
        <mxCell id="SgWflcFPjo7BXx8ql38D-125" value="登录" style="whiteSpace=wrap;html=1;align=center;fillColor=#dae8fc;gradientColor=#7ea6e0;strokeColor=#6c8ebf;" parent="1" vertex="1">
          <mxGeometry x="-183.51999999999998" y="70.79000000000008" width="100" height="40" as="geometry" />
        </mxCell>
        <mxCell id="SgWflcFPjo7BXx8ql38D-126" value="Redis5 Cluster " style="swimlane;fontStyle=0;childLayout=stackLayout;horizontal=1;startSize=26;horizontalStack=0;resizeParent=1;resizeParentMax=0;resizeLast=0;collapsible=1;marginBottom=0;align=center;fontSize=15;fillColor=#f8cecc;gradientColor=#ea6b66;strokeColor=#b85450;" parent="1" vertex="1">
          <mxGeometry x="-251" y="-168.93025641025645" width="192.97" height="106.28545941123997" as="geometry" />
        </mxCell>
        <mxCell id="SgWflcFPjo7BXx8ql38D-127" value="测试/自建124.71.79.125:6100/DB1" style="text;strokeColor=#82b366;fillColor=#d5e8d4;spacingLeft=4;spacingRight=4;overflow=hidden;rotatable=0;points=[[0,0.5],[1,0.5]];portConstraint=eastwest;fontSize=10;gradientColor=#97d077;align=center;" parent="SgWflcFPjo7BXx8ql38D-126" vertex="1">
          <mxGeometry y="26" width="192.97" height="26.761819803746654" as="geometry" />
        </mxCell>
        <mxCell id="SgWflcFPjo7BXx8ql38D-128" value="生产自建139.159.225.230:6379/DB1" style="text;strokeColor=#b85450;fillColor=#f8cecc;spacingLeft=4;spacingRight=4;overflow=hidden;rotatable=0;points=[[0,0.5],[1,0.5]];portConstraint=eastwest;fontSize=10;gradientColor=#ea6b66;align=center;" parent="SgWflcFPjo7BXx8ql38D-126" vertex="1">
          <mxGeometry y="52.761819803746654" width="192.97" height="26.761819803746654" as="geometry" />
        </mxCell>
        <mxCell id="SgWflcFPjo7BXx8ql38D-129" value="userMapper-loginByToken" style="text;strokeColor=#d6b656;fillColor=#fff2cc;spacingLeft=4;spacingRight=4;overflow=hidden;rotatable=0;points=[[0,0.5],[1,0.5]];portConstraint=eastwest;fontSize=12;gradientColor=#ffd966;align=center;" parent="SgWflcFPjo7BXx8ql38D-126" vertex="1">
          <mxGeometry y="79.52363960749331" width="192.97" height="26.761819803746654" as="geometry" />
        </mxCell>
        <mxCell id="SgWflcFPjo7BXx8ql38D-130" value="" style="edgeStyle=elbowEdgeStyle;elbow=vertical;endArrow=classic;html=1;curved=0;rounded=0;endSize=8;startSize=8;exitX=0;exitY=0.5;exitDx=0;exitDy=0;" parent="1" source="SgWflcFPjo7BXx8ql38D-105" edge="1">
          <mxGeometry width="50" height="50" relative="1" as="geometry">
            <mxPoint x="-450" y="-220" as="sourcePoint" />
            <mxPoint x="-290" y="-10" as="targetPoint" />
            <Array as="points">
              <mxPoint x="-250" y="-10" />
            </Array>
          </mxGeometry>
        </mxCell>
        <mxCell id="SgWflcFPjo7BXx8ql38D-131" value="DB" style="edgeLabel;html=1;align=center;verticalAlign=middle;resizable=0;points=[];" parent="SgWflcFPjo7BXx8ql38D-130" vertex="1" connectable="0">
          <mxGeometry x="-0.2854" relative="1" as="geometry">
            <mxPoint x="-18" as="offset" />
          </mxGeometry>
        </mxCell>
        <mxCell id="SgWflcFPjo7BXx8ql38D-132" value="" style="edgeStyle=elbowEdgeStyle;elbow=vertical;endArrow=classic;html=1;curved=0;rounded=0;endSize=8;startSize=8;exitX=0.5;exitY=0;exitDx=0;exitDy=0;entryX=0.5;entryY=1;entryDx=0;entryDy=0;" parent="1" source="SgWflcFPjo7BXx8ql38D-105" edge="1">
          <mxGeometry width="50" height="50" relative="1" as="geometry">
            <mxPoint x="-89.00999999999999" y="-222.21000000000004" as="sourcePoint" />
            <mxPoint x="-133.52499999999986" y="-64.85479699901634" as="targetPoint" />
            <Array as="points" />
          </mxGeometry>
        </mxCell>
        <mxCell id="SgWflcFPjo7BXx8ql38D-133" value="CACHE" style="edgeLabel;html=1;align=center;verticalAlign=middle;resizable=0;points=[];" parent="SgWflcFPjo7BXx8ql38D-132" vertex="1" connectable="0">
          <mxGeometry x="-0.4421" relative="1" as="geometry">
            <mxPoint as="offset" />
          </mxGeometry>
        </mxCell>
        <mxCell id="SgWflcFPjo7BXx8ql38D-134" value="用户DB Cluster" style="text;html=1;strokeColor=#6c8ebf;fillColor=#dae8fc;align=center;verticalAlign=middle;whiteSpace=wrap;rounded=0;fontSize=18;gradientColor=#7ea6e0;" parent="1" vertex="1">
          <mxGeometry x="-550" y="-199.92999999999995" width="500" height="30" as="geometry" />
        </mxCell>
        <mxCell id="SgWflcFPjo7BXx8ql38D-135" value="" style="rounded=0;whiteSpace=wrap;html=1;fillColor=#f8cecc;gradientColor=#ea6b66;strokeColor=#b85450;" parent="1" vertex="1">
          <mxGeometry x="-670.06" y="130" width="760.06" height="320" as="geometry" />
        </mxCell>
        <mxCell id="SgWflcFPjo7BXx8ql38D-136" value="轮询推送规则" style="shape=rhombus;perimeter=rhombusPerimeter;whiteSpace=wrap;html=1;align=center;fillColor=#fff2cc;gradientColor=#ffd966;strokeColor=#d6b656;" parent="1" vertex="1">
          <mxGeometry x="-30" y="310" width="120" height="60" as="geometry" />
        </mxCell>
        <mxCell id="SgWflcFPjo7BXx8ql38D-137" value="MySql8主从  " style="swimlane;fontStyle=0;childLayout=stackLayout;horizontal=1;startSize=26;horizontalStack=0;resizeParent=1;resizeParentMax=0;resizeLast=0;collapsible=1;marginBottom=0;align=center;fontSize=15;fillColor=#dae8fc;gradientColor=#7ea6e0;strokeColor=#6c8ebf;" parent="1" vertex="1">
          <mxGeometry x="-660.06" y="161.57" width="222.97" height="266.85637823371985" as="geometry" />
        </mxCell>
        <mxCell id="SgWflcFPjo7BXx8ql38D-138" value="测试自建124.71.79.125:6006/push_mate_db" style="text;strokeColor=#82b366;fillColor=#d5e8d4;spacingLeft=4;spacingRight=4;overflow=hidden;rotatable=0;points=[[0,0.5],[1,0.5]];portConstraint=eastwest;fontSize=10;gradientColor=#97d077;align=center;" parent="SgWflcFPjo7BXx8ql38D-137" vertex="1">
          <mxGeometry y="26" width="222.97" height="26.761819803746654" as="geometry" />
        </mxCell>
        <mxCell id="SgWflcFPjo7BXx8ql38D-139" value="生产云托管139.9.1.158:3306/web_db" style="text;strokeColor=#6c8ebf;fillColor=#dae8fc;spacingLeft=4;spacingRight=4;overflow=hidden;rotatable=0;points=[[0,0.5],[1,0.5]];portConstraint=eastwest;fontSize=10;gradientColor=#7ea6e0;align=center;" parent="SgWflcFPjo7BXx8ql38D-137" vertex="1">
          <mxGeometry y="52.761819803746654" width="222.97" height="26.761819803746654" as="geometry" />
        </mxCell>
        <mxCell id="SgWflcFPjo7BXx8ql38D-140" value="商户cst_no" style="text;strokeColor=#82b366;fillColor=#d5e8d4;spacingLeft=4;spacingRight=4;overflow=hidden;rotatable=0;points=[[0,0.5],[1,0.5]];portConstraint=eastwest;fontSize=12;gradientColor=#97d077;align=center;" parent="SgWflcFPjo7BXx8ql38D-137" vertex="1">
          <mxGeometry y="79.52363960749331" width="222.97" height="26.761819803746654" as="geometry" />
        </mxCell>
        <mxCell id="SgWflcFPjo7BXx8ql38D-141" value="用户_user_id" style="text;strokeColor=#b85450;fillColor=#f8cecc;spacingLeft=4;spacingRight=4;overflow=hidden;rotatable=0;points=[[0,0.5],[1,0.5]];portConstraint=eastwest;fontSize=12;gradientColor=#ea6b66;align=center;" parent="SgWflcFPjo7BXx8ql38D-137" vertex="1">
          <mxGeometry y="106.28545941123997" width="222.97" height="26.761819803746654" as="geometry" />
        </mxCell>
        <mxCell id="SgWflcFPjo7BXx8ql38D-142" value="权限" style="text;strokeColor=#d6b656;fillColor=#fff2cc;spacingLeft=4;spacingRight=4;overflow=hidden;rotatable=0;points=[[0,0.5],[1,0.5]];portConstraint=eastwest;fontSize=12;gradientColor=#ffd966;align=center;" parent="SgWflcFPjo7BXx8ql38D-137" vertex="1">
          <mxGeometry y="133.04727921498662" width="222.97" height="26.761819803746654" as="geometry" />
        </mxCell>
        <mxCell id="SgWflcFPjo7BXx8ql38D-143" value="卡iccid" style="text;strokeColor=#d79b00;fillColor=#ffcd28;spacingLeft=4;spacingRight=4;overflow=hidden;rotatable=0;points=[[0,0.5],[1,0.5]];portConstraint=eastwest;fontSize=12;gradientColor=#ffa500;align=center;" parent="SgWflcFPjo7BXx8ql38D-137" vertex="1">
          <mxGeometry y="159.80909901873326" width="222.97" height="26.761819803746654" as="geometry" />
        </mxCell>
        <mxCell id="SgWflcFPjo7BXx8ql38D-144" value="设备did" style="text;strokeColor=#82b366;fillColor=#d5e8d4;spacingLeft=4;spacingRight=4;overflow=hidden;rotatable=0;points=[[0,0.5],[1,0.5]];portConstraint=eastwest;fontSize=12;gradientColor=#97d077;align=center;" parent="SgWflcFPjo7BXx8ql38D-137" vertex="1">
          <mxGeometry y="186.5709188224799" width="222.97" height="26.761819803746654" as="geometry" />
        </mxCell>
        <mxCell id="SgWflcFPjo7BXx8ql38D-145" value="消息" style="text;strokeColor=#b85450;fillColor=#f8cecc;spacingLeft=4;spacingRight=4;overflow=hidden;rotatable=0;points=[[0,0.5],[1,0.5]];portConstraint=eastwest;fontSize=12;gradientColor=#ea6b66;align=center;" parent="SgWflcFPjo7BXx8ql38D-137" vertex="1">
          <mxGeometry y="213.33273862622656" width="222.97" height="26.761819803746654" as="geometry" />
        </mxCell>
        <mxCell id="SgWflcFPjo7BXx8ql38D-146" value="业务行为日志" style="text;strokeColor=#d79b00;fillColor=#ffcd28;spacingLeft=4;spacingRight=4;overflow=hidden;rotatable=0;points=[[0,0.5],[1,0.5]];portConstraint=eastwest;fontSize=12;gradientColor=#ffa500;align=center;" parent="SgWflcFPjo7BXx8ql38D-137" vertex="1">
          <mxGeometry y="240.0945584299732" width="222.97" height="26.761819803746654" as="geometry" />
        </mxCell>
        <mxCell id="SgWflcFPjo7BXx8ql38D-147" value="" style="edgeStyle=entityRelationEdgeStyle;fontSize=12;html=1;endArrow=ERzeroToMany;endFill=1;rounded=0;exitX=1;exitY=0.5;exitDx=0;exitDy=0;" parent="SgWflcFPjo7BXx8ql38D-137" source="SgWflcFPjo7BXx8ql38D-140" target="SgWflcFPjo7BXx8ql38D-144" edge="1">
          <mxGeometry width="100" height="100" relative="1" as="geometry">
            <mxPoint x="344.5945945945946" y="133.8090990187333" as="sourcePoint" />
            <mxPoint x="482.4324324324324" y="44.603033006244424" as="targetPoint" />
          </mxGeometry>
        </mxCell>
        <mxCell id="SgWflcFPjo7BXx8ql38D-148" value="" style="edgeStyle=entityRelationEdgeStyle;fontSize=12;html=1;endArrow=ERzeroToMany;endFill=1;rounded=0;exitX=1;exitY=0.5;exitDx=0;exitDy=0;" parent="SgWflcFPjo7BXx8ql38D-137" source="SgWflcFPjo7BXx8ql38D-140" target="SgWflcFPjo7BXx8ql38D-144" edge="1">
          <mxGeometry width="100" height="100" relative="1" as="geometry">
            <mxPoint x="330.8108108108108" y="133.8090990187333" as="sourcePoint" />
            <mxPoint x="468.64864864864865" y="44.603033006244424" as="targetPoint" />
          </mxGeometry>
        </mxCell>
        <mxCell id="SgWflcFPjo7BXx8ql38D-149" value="" style="edgeStyle=entityRelationEdgeStyle;fontSize=12;html=1;endArrow=ERzeroToMany;endFill=1;rounded=0;exitX=1;exitY=0.5;exitDx=0;exitDy=0;" parent="SgWflcFPjo7BXx8ql38D-137" source="SgWflcFPjo7BXx8ql38D-140" target="SgWflcFPjo7BXx8ql38D-143" edge="1">
          <mxGeometry width="100" height="100" relative="1" as="geometry">
            <mxPoint x="358.37837837837833" y="205.17395182872437" as="sourcePoint" />
            <mxPoint x="496.2162162162162" y="115.96788581623551" as="targetPoint" />
          </mxGeometry>
        </mxCell>
        <mxCell id="SgWflcFPjo7BXx8ql38D-150" value="管理" style="edgeLabel;html=1;align=center;verticalAlign=middle;resizable=0;points=[];" parent="SgWflcFPjo7BXx8ql38D-149" vertex="1" connectable="0">
          <mxGeometry x="-0.3143" y="2" relative="1" as="geometry">
            <mxPoint x="-15" y="-18" as="offset" />
          </mxGeometry>
        </mxCell>
        <mxCell id="SgWflcFPjo7BXx8ql38D-151" value="" style="edgeStyle=entityRelationEdgeStyle;fontSize=12;html=1;endArrow=ERzeroToMany;endFill=1;rounded=0;exitX=1;exitY=0.5;exitDx=0;exitDy=0;entryX=1;entryY=0.5;entryDx=0;entryDy=0;" parent="SgWflcFPjo7BXx8ql38D-137" source="SgWflcFPjo7BXx8ql38D-141" target="SgWflcFPjo7BXx8ql38D-143" edge="1">
          <mxGeometry width="100" height="100" relative="1" as="geometry">
            <mxPoint x="372.16216216216213" y="231.93577163247102" as="sourcePoint" />
            <mxPoint y="169.49152542372883" as="targetPoint" />
          </mxGeometry>
        </mxCell>
        <mxCell id="SgWflcFPjo7BXx8ql38D-152" value="操作" style="edgeLabel;html=1;align=center;verticalAlign=middle;resizable=0;points=[];" parent="SgWflcFPjo7BXx8ql38D-151" vertex="1" connectable="0">
          <mxGeometry x="-0.7352" relative="1" as="geometry">
            <mxPoint as="offset" />
          </mxGeometry>
        </mxCell>
        <mxCell id="SgWflcFPjo7BXx8ql38D-153" value="" style="edgeStyle=entityRelationEdgeStyle;fontSize=12;html=1;endArrow=ERmany;startArrow=ERmany;rounded=0;exitX=1;exitY=0.5;exitDx=0;exitDy=0;entryX=1;entryY=0.5;entryDx=0;entryDy=0;" parent="SgWflcFPjo7BXx8ql38D-137" source="SgWflcFPjo7BXx8ql38D-142" target="SgWflcFPjo7BXx8ql38D-144" edge="1">
          <mxGeometry width="100" height="100" relative="1" as="geometry">
            <mxPoint x="300" y="136" as="sourcePoint" />
            <mxPoint x="400" y="36" as="targetPoint" />
          </mxGeometry>
        </mxCell>
        <mxCell id="SgWflcFPjo7BXx8ql38D-154" value="控制" style="edgeLabel;html=1;align=center;verticalAlign=middle;resizable=0;points=[];" parent="SgWflcFPjo7BXx8ql38D-153" vertex="1" connectable="0">
          <mxGeometry x="-0.7176" relative="1" as="geometry">
            <mxPoint as="offset" />
          </mxGeometry>
        </mxCell>
        <mxCell id="SgWflcFPjo7BXx8ql38D-155" style="edgeStyle=orthogonalEdgeStyle;rounded=0;orthogonalLoop=1;jettySize=auto;html=1;entryX=0.5;entryY=1;entryDx=0;entryDy=0;" parent="1" source="SgWflcFPjo7BXx8ql38D-156" target="SgWflcFPjo7BXx8ql38D-136" edge="1">
          <mxGeometry relative="1" as="geometry" />
        </mxCell>
        <mxCell id="SgWflcFPjo7BXx8ql38D-156" value="推送" style="whiteSpace=wrap;html=1;align=center;fillColor=#f8cecc;gradientColor=#ea6b66;strokeColor=#b85450;" parent="1" vertex="1">
          <mxGeometry x="-20" y="401.93000000000006" width="100" height="40" as="geometry" />
        </mxCell>
        <mxCell id="SgWflcFPjo7BXx8ql38D-157" value="Redis5 Cluster " style="swimlane;fontStyle=0;childLayout=stackLayout;horizontal=1;startSize=26;horizontalStack=0;resizeParent=1;resizeParentMax=0;resizeLast=0;collapsible=1;marginBottom=0;align=center;fontSize=15;fillColor=#dae8fc;gradientColor=#7ea6e0;strokeColor=#6c8ebf;" parent="1" vertex="1">
          <mxGeometry x="-112.96999999999997" y="159.99974358974356" width="192.97" height="106.28545941123997" as="geometry" />
        </mxCell>
        <mxCell id="SgWflcFPjo7BXx8ql38D-158" value="测试/自建124.71.79.125:6100/DB6" style="text;strokeColor=#82b366;fillColor=#d5e8d4;spacingLeft=4;spacingRight=4;overflow=hidden;rotatable=0;points=[[0,0.5],[1,0.5]];portConstraint=eastwest;fontSize=10;gradientColor=#97d077;align=center;" parent="SgWflcFPjo7BXx8ql38D-157" vertex="1">
          <mxGeometry y="26" width="192.97" height="26.761819803746654" as="geometry" />
        </mxCell>
        <mxCell id="SgWflcFPjo7BXx8ql38D-159" value="生产自建139.159.225.230:6379/DB1" style="text;strokeColor=#6c8ebf;fillColor=#dae8fc;spacingLeft=4;spacingRight=4;overflow=hidden;rotatable=0;points=[[0,0.5],[1,0.5]];portConstraint=eastwest;fontSize=10;gradientColor=#7ea6e0;align=center;" parent="SgWflcFPjo7BXx8ql38D-157" vertex="1">
          <mxGeometry y="52.761819803746654" width="192.97" height="26.761819803746654" as="geometry" />
        </mxCell>
        <mxCell id="SgWflcFPjo7BXx8ql38D-160" value="MOB_PUSH_ALIAS" style="text;strokeColor=#d6b656;fillColor=#fff2cc;spacingLeft=4;spacingRight=4;overflow=hidden;rotatable=0;points=[[0,0.5],[1,0.5]];portConstraint=eastwest;fontSize=12;gradientColor=#ffd966;align=center;" parent="SgWflcFPjo7BXx8ql38D-157" vertex="1">
          <mxGeometry y="79.52363960749331" width="192.97" height="26.761819803746654" as="geometry" />
        </mxCell>
        <mxCell id="SgWflcFPjo7BXx8ql38D-161" value="" style="edgeStyle=elbowEdgeStyle;elbow=vertical;endArrow=classic;html=1;curved=0;rounded=0;endSize=8;startSize=8;exitX=0;exitY=0.5;exitDx=0;exitDy=0;" parent="1" source="SgWflcFPjo7BXx8ql38D-136" edge="1">
          <mxGeometry width="50" height="50" relative="1" as="geometry">
            <mxPoint x="-570.06" y="110" as="sourcePoint" />
            <mxPoint x="-410" y="320" as="targetPoint" />
            <Array as="points">
              <mxPoint x="-30" y="320" />
            </Array>
          </mxGeometry>
        </mxCell>
        <mxCell id="SgWflcFPjo7BXx8ql38D-162" value="DB" style="edgeLabel;html=1;align=center;verticalAlign=middle;resizable=0;points=[];" parent="SgWflcFPjo7BXx8ql38D-161" vertex="1" connectable="0">
          <mxGeometry x="-0.2854" relative="1" as="geometry">
            <mxPoint x="-18" as="offset" />
          </mxGeometry>
        </mxCell>
        <mxCell id="SgWflcFPjo7BXx8ql38D-163" value="" style="edgeStyle=elbowEdgeStyle;elbow=vertical;endArrow=classic;html=1;curved=0;rounded=0;endSize=8;startSize=8;exitX=0.5;exitY=0;exitDx=0;exitDy=0;" parent="1" source="SgWflcFPjo7BXx8ql38D-136" target="SgWflcFPjo7BXx8ql38D-157" edge="1">
          <mxGeometry width="50" height="50" relative="1" as="geometry">
            <mxPoint x="-230.06" y="110" as="sourcePoint" />
            <mxPoint x="-210" y="190" as="targetPoint" />
            <Array as="points">
              <mxPoint x="-70" y="190" />
            </Array>
          </mxGeometry>
        </mxCell>
        <mxCell id="SgWflcFPjo7BXx8ql38D-164" value="CACHE" style="edgeLabel;html=1;align=center;verticalAlign=middle;resizable=0;points=[];" parent="SgWflcFPjo7BXx8ql38D-163" vertex="1" connectable="0">
          <mxGeometry x="-0.4421" relative="1" as="geometry">
            <mxPoint as="offset" />
          </mxGeometry>
        </mxCell>
        <mxCell id="SgWflcFPjo7BXx8ql38D-165" value="推送DB Cluster" style="text;html=1;strokeColor=#b85450;fillColor=#f8cecc;align=center;verticalAlign=middle;whiteSpace=wrap;rounded=0;fontSize=18;gradientColor=#ea6b66;" parent="1" vertex="1">
          <mxGeometry x="-670.06" y="130" width="760.06" height="30" as="geometry" />
        </mxCell>
        <mxCell id="SgWflcFPjo7BXx8ql38D-166" value="" style="rounded=0;whiteSpace=wrap;html=1;fillColor=#d5e8d4;gradientColor=#97d077;strokeColor=#82b366;" parent="1" vertex="1">
          <mxGeometry x="112.91000000000008" y="130" width="760.06" height="322.79" as="geometry" />
        </mxCell>
        <mxCell id="SgWflcFPjo7BXx8ql38D-167" value="签权" style="shape=rhombus;perimeter=rhombusPerimeter;whiteSpace=wrap;html=1;align=center;fillColor=#fff2cc;gradientColor=#ffd966;strokeColor=#d6b656;" parent="1" vertex="1">
          <mxGeometry x="752.97" y="302.79" width="120" height="60" as="geometry" />
        </mxCell>
        <mxCell id="SgWflcFPjo7BXx8ql38D-168" value="MySql8主从  " style="swimlane;fontStyle=0;childLayout=stackLayout;horizontal=1;startSize=26;horizontalStack=0;resizeParent=1;resizeParentMax=0;resizeLast=0;collapsible=1;marginBottom=0;align=center;fontSize=15;fillColor=#dae8fc;gradientColor=#7ea6e0;strokeColor=#6c8ebf;" parent="1" vertex="1">
          <mxGeometry x="122.91000000000008" y="161.07" width="222.97" height="266.85637823371985" as="geometry" />
        </mxCell>
        <mxCell id="SgWflcFPjo7BXx8ql38D-169" value="测试自建124.71.79.125:6006/push_mate_db" style="text;strokeColor=#82b366;fillColor=#d5e8d4;spacingLeft=4;spacingRight=4;overflow=hidden;rotatable=0;points=[[0,0.5],[1,0.5]];portConstraint=eastwest;fontSize=10;gradientColor=#97d077;align=center;" parent="SgWflcFPjo7BXx8ql38D-168" vertex="1">
          <mxGeometry y="26" width="222.97" height="26.761819803746654" as="geometry" />
        </mxCell>
        <mxCell id="SgWflcFPjo7BXx8ql38D-170" value="生产云托管139.9.1.158:3306/web_db" style="text;strokeColor=#6c8ebf;fillColor=#dae8fc;spacingLeft=4;spacingRight=4;overflow=hidden;rotatable=0;points=[[0,0.5],[1,0.5]];portConstraint=eastwest;fontSize=10;gradientColor=#7ea6e0;align=center;" parent="SgWflcFPjo7BXx8ql38D-168" vertex="1">
          <mxGeometry y="52.761819803746654" width="222.97" height="26.761819803746654" as="geometry" />
        </mxCell>
        <mxCell id="SgWflcFPjo7BXx8ql38D-171" value="商户cst_no" style="text;strokeColor=#82b366;fillColor=#d5e8d4;spacingLeft=4;spacingRight=4;overflow=hidden;rotatable=0;points=[[0,0.5],[1,0.5]];portConstraint=eastwest;fontSize=12;gradientColor=#97d077;align=center;" parent="SgWflcFPjo7BXx8ql38D-168" vertex="1">
          <mxGeometry y="79.52363960749331" width="222.97" height="26.761819803746654" as="geometry" />
        </mxCell>
        <mxCell id="SgWflcFPjo7BXx8ql38D-172" value="用户_user_id" style="text;strokeColor=#b85450;fillColor=#f8cecc;spacingLeft=4;spacingRight=4;overflow=hidden;rotatable=0;points=[[0,0.5],[1,0.5]];portConstraint=eastwest;fontSize=12;gradientColor=#ea6b66;align=center;" parent="SgWflcFPjo7BXx8ql38D-168" vertex="1">
          <mxGeometry y="106.28545941123997" width="222.97" height="26.761819803746654" as="geometry" />
        </mxCell>
        <mxCell id="SgWflcFPjo7BXx8ql38D-173" value="权限" style="text;strokeColor=#d6b656;fillColor=#fff2cc;spacingLeft=4;spacingRight=4;overflow=hidden;rotatable=0;points=[[0,0.5],[1,0.5]];portConstraint=eastwest;fontSize=12;gradientColor=#ffd966;align=center;" parent="SgWflcFPjo7BXx8ql38D-168" vertex="1">
          <mxGeometry y="133.04727921498662" width="222.97" height="26.761819803746654" as="geometry" />
        </mxCell>
        <mxCell id="SgWflcFPjo7BXx8ql38D-174" value="卡iccid" style="text;strokeColor=#d79b00;fillColor=#ffcd28;spacingLeft=4;spacingRight=4;overflow=hidden;rotatable=0;points=[[0,0.5],[1,0.5]];portConstraint=eastwest;fontSize=12;gradientColor=#ffa500;align=center;" parent="SgWflcFPjo7BXx8ql38D-168" vertex="1">
          <mxGeometry y="159.80909901873326" width="222.97" height="26.761819803746654" as="geometry" />
        </mxCell>
        <mxCell id="SgWflcFPjo7BXx8ql38D-175" value="设备did" style="text;strokeColor=#82b366;fillColor=#d5e8d4;spacingLeft=4;spacingRight=4;overflow=hidden;rotatable=0;points=[[0,0.5],[1,0.5]];portConstraint=eastwest;fontSize=12;gradientColor=#97d077;align=center;" parent="SgWflcFPjo7BXx8ql38D-168" vertex="1">
          <mxGeometry y="186.5709188224799" width="222.97" height="26.761819803746654" as="geometry" />
        </mxCell>
        <mxCell id="SgWflcFPjo7BXx8ql38D-176" value="消息" style="text;strokeColor=#b85450;fillColor=#f8cecc;spacingLeft=4;spacingRight=4;overflow=hidden;rotatable=0;points=[[0,0.5],[1,0.5]];portConstraint=eastwest;fontSize=12;gradientColor=#ea6b66;align=center;" parent="SgWflcFPjo7BXx8ql38D-168" vertex="1">
          <mxGeometry y="213.33273862622656" width="222.97" height="26.761819803746654" as="geometry" />
        </mxCell>
        <mxCell id="SgWflcFPjo7BXx8ql38D-177" value="业务行为日志" style="text;strokeColor=#d79b00;fillColor=#ffcd28;spacingLeft=4;spacingRight=4;overflow=hidden;rotatable=0;points=[[0,0.5],[1,0.5]];portConstraint=eastwest;fontSize=12;gradientColor=#ffa500;align=center;" parent="SgWflcFPjo7BXx8ql38D-168" vertex="1">
          <mxGeometry y="240.0945584299732" width="222.97" height="26.761819803746654" as="geometry" />
        </mxCell>
        <mxCell id="SgWflcFPjo7BXx8ql38D-178" value="" style="edgeStyle=entityRelationEdgeStyle;fontSize=12;html=1;endArrow=ERzeroToMany;endFill=1;rounded=0;exitX=1;exitY=0.5;exitDx=0;exitDy=0;" parent="SgWflcFPjo7BXx8ql38D-168" source="SgWflcFPjo7BXx8ql38D-171" target="SgWflcFPjo7BXx8ql38D-175" edge="1">
          <mxGeometry width="100" height="100" relative="1" as="geometry">
            <mxPoint x="344.5945945945946" y="133.8090990187333" as="sourcePoint" />
            <mxPoint x="482.4324324324324" y="44.603033006244424" as="targetPoint" />
          </mxGeometry>
        </mxCell>
        <mxCell id="SgWflcFPjo7BXx8ql38D-179" value="" style="edgeStyle=entityRelationEdgeStyle;fontSize=12;html=1;endArrow=ERzeroToMany;endFill=1;rounded=0;exitX=1;exitY=0.5;exitDx=0;exitDy=0;" parent="SgWflcFPjo7BXx8ql38D-168" source="SgWflcFPjo7BXx8ql38D-171" target="SgWflcFPjo7BXx8ql38D-175" edge="1">
          <mxGeometry width="100" height="100" relative="1" as="geometry">
            <mxPoint x="330.8108108108108" y="133.8090990187333" as="sourcePoint" />
            <mxPoint x="468.64864864864865" y="44.603033006244424" as="targetPoint" />
          </mxGeometry>
        </mxCell>
        <mxCell id="SgWflcFPjo7BXx8ql38D-180" value="" style="edgeStyle=entityRelationEdgeStyle;fontSize=12;html=1;endArrow=ERzeroToMany;endFill=1;rounded=0;exitX=1;exitY=0.5;exitDx=0;exitDy=0;" parent="SgWflcFPjo7BXx8ql38D-168" source="SgWflcFPjo7BXx8ql38D-171" target="SgWflcFPjo7BXx8ql38D-174" edge="1">
          <mxGeometry width="100" height="100" relative="1" as="geometry">
            <mxPoint x="358.37837837837833" y="205.17395182872437" as="sourcePoint" />
            <mxPoint x="496.2162162162162" y="115.96788581623551" as="targetPoint" />
          </mxGeometry>
        </mxCell>
        <mxCell id="SgWflcFPjo7BXx8ql38D-181" value="管理" style="edgeLabel;html=1;align=center;verticalAlign=middle;resizable=0;points=[];" parent="SgWflcFPjo7BXx8ql38D-180" vertex="1" connectable="0">
          <mxGeometry x="-0.3143" y="2" relative="1" as="geometry">
            <mxPoint x="-15" y="-18" as="offset" />
          </mxGeometry>
        </mxCell>
        <mxCell id="SgWflcFPjo7BXx8ql38D-182" value="" style="edgeStyle=entityRelationEdgeStyle;fontSize=12;html=1;endArrow=ERzeroToMany;endFill=1;rounded=0;exitX=1;exitY=0.5;exitDx=0;exitDy=0;entryX=1;entryY=0.5;entryDx=0;entryDy=0;" parent="SgWflcFPjo7BXx8ql38D-168" source="SgWflcFPjo7BXx8ql38D-172" target="SgWflcFPjo7BXx8ql38D-174" edge="1">
          <mxGeometry width="100" height="100" relative="1" as="geometry">
            <mxPoint x="372.16216216216213" y="231.93577163247102" as="sourcePoint" />
            <mxPoint y="169.49152542372883" as="targetPoint" />
          </mxGeometry>
        </mxCell>
        <mxCell id="SgWflcFPjo7BXx8ql38D-183" value="操作" style="edgeLabel;html=1;align=center;verticalAlign=middle;resizable=0;points=[];" parent="SgWflcFPjo7BXx8ql38D-182" vertex="1" connectable="0">
          <mxGeometry x="-0.7352" relative="1" as="geometry">
            <mxPoint as="offset" />
          </mxGeometry>
        </mxCell>
        <mxCell id="SgWflcFPjo7BXx8ql38D-184" value="" style="edgeStyle=entityRelationEdgeStyle;fontSize=12;html=1;endArrow=ERmany;startArrow=ERmany;rounded=0;exitX=1;exitY=0.5;exitDx=0;exitDy=0;entryX=1;entryY=0.5;entryDx=0;entryDy=0;" parent="SgWflcFPjo7BXx8ql38D-168" source="SgWflcFPjo7BXx8ql38D-173" target="SgWflcFPjo7BXx8ql38D-175" edge="1">
          <mxGeometry width="100" height="100" relative="1" as="geometry">
            <mxPoint x="300" y="136" as="sourcePoint" />
            <mxPoint x="400" y="36" as="targetPoint" />
          </mxGeometry>
        </mxCell>
        <mxCell id="SgWflcFPjo7BXx8ql38D-185" value="控制" style="edgeLabel;html=1;align=center;verticalAlign=middle;resizable=0;points=[];" parent="SgWflcFPjo7BXx8ql38D-184" vertex="1" connectable="0">
          <mxGeometry x="-0.7176" relative="1" as="geometry">
            <mxPoint as="offset" />
          </mxGeometry>
        </mxCell>
        <mxCell id="SgWflcFPjo7BXx8ql38D-186" style="edgeStyle=orthogonalEdgeStyle;rounded=0;orthogonalLoop=1;jettySize=auto;html=1;entryX=0.5;entryY=1;entryDx=0;entryDy=0;" parent="1" source="SgWflcFPjo7BXx8ql38D-187" edge="1" target="SgWflcFPjo7BXx8ql38D-167">
          <mxGeometry relative="1" as="geometry">
            <mxPoint x="812.97" y="342.79" as="targetPoint" />
            <Array as="points" />
          </mxGeometry>
        </mxCell>
        <mxCell id="SgWflcFPjo7BXx8ql38D-187" value="存储" style="whiteSpace=wrap;html=1;align=center;fillColor=#d5e8d4;gradientColor=#97d077;strokeColor=#82b366;" parent="1" vertex="1">
          <mxGeometry x="762.97" y="402.79000000000013" width="100" height="40" as="geometry" />
        </mxCell>
        <mxCell id="SgWflcFPjo7BXx8ql38D-188" value="Redis5 Cluster " style="swimlane;fontStyle=0;childLayout=stackLayout;horizontal=1;startSize=26;horizontalStack=0;resizeParent=1;resizeParentMax=0;resizeLast=0;collapsible=1;marginBottom=0;align=center;fontSize=15;fillColor=#f8cecc;gradientColor=#ea6b66;strokeColor=#b85450;" parent="1" vertex="1">
          <mxGeometry x="668.9100000000001" y="161.06974358974372" width="192.97" height="106.28545941123997" as="geometry" />
        </mxCell>
        <mxCell id="SgWflcFPjo7BXx8ql38D-189" value="测试/自建124.71.79.125:6100/DB1" style="text;strokeColor=#82b366;fillColor=#d5e8d4;spacingLeft=4;spacingRight=4;overflow=hidden;rotatable=0;points=[[0,0.5],[1,0.5]];portConstraint=eastwest;fontSize=10;gradientColor=#97d077;align=center;" parent="SgWflcFPjo7BXx8ql38D-188" vertex="1">
          <mxGeometry y="26" width="192.97" height="26.761819803746654" as="geometry" />
        </mxCell>
        <mxCell id="SgWflcFPjo7BXx8ql38D-190" value="生产自建139.159.225.230:6379/DB1" style="text;strokeColor=#b85450;fillColor=#f8cecc;spacingLeft=4;spacingRight=4;overflow=hidden;rotatable=0;points=[[0,0.5],[1,0.5]];portConstraint=eastwest;fontSize=10;gradientColor=#ea6b66;align=center;" parent="SgWflcFPjo7BXx8ql38D-188" vertex="1">
          <mxGeometry y="52.761819803746654" width="192.97" height="26.761819803746654" as="geometry" />
        </mxCell>
        <mxCell id="SgWflcFPjo7BXx8ql38D-191" value="userMapper-loginByToken" style="text;strokeColor=#d6b656;fillColor=#fff2cc;spacingLeft=4;spacingRight=4;overflow=hidden;rotatable=0;points=[[0,0.5],[1,0.5]];portConstraint=eastwest;fontSize=12;gradientColor=#ffd966;align=center;" parent="SgWflcFPjo7BXx8ql38D-188" vertex="1">
          <mxGeometry y="79.52363960749331" width="192.97" height="26.761819803746654" as="geometry" />
        </mxCell>
        <mxCell id="SgWflcFPjo7BXx8ql38D-192" value="" style="edgeStyle=elbowEdgeStyle;elbow=vertical;endArrow=classic;html=1;curved=0;rounded=0;endSize=8;startSize=8;exitX=0;exitY=0.5;exitDx=0;exitDy=0;" parent="1" source="SgWflcFPjo7BXx8ql38D-167" edge="1">
          <mxGeometry width="50" height="50" relative="1" as="geometry">
            <mxPoint x="212.91000000000008" y="110" as="sourcePoint" />
            <mxPoint x="372.91" y="320.00000000000006" as="targetPoint" />
            <Array as="points">
              <mxPoint x="412.91" y="320.00000000000006" />
            </Array>
          </mxGeometry>
        </mxCell>
        <mxCell id="SgWflcFPjo7BXx8ql38D-193" value="DB" style="edgeLabel;html=1;align=center;verticalAlign=middle;resizable=0;points=[];" parent="SgWflcFPjo7BXx8ql38D-192" vertex="1" connectable="0">
          <mxGeometry x="-0.2854" relative="1" as="geometry">
            <mxPoint x="-18" as="offset" />
          </mxGeometry>
        </mxCell>
        <mxCell id="SgWflcFPjo7BXx8ql38D-194" value="" style="edgeStyle=elbowEdgeStyle;elbow=vertical;endArrow=classic;html=1;curved=0;rounded=0;endSize=8;startSize=8;exitX=0.5;exitY=0;exitDx=0;exitDy=0;" parent="1" source="SgWflcFPjo7BXx8ql38D-167" edge="1" target="SgWflcFPjo7BXx8ql38D-191">
          <mxGeometry width="50" height="50" relative="1" as="geometry">
            <mxPoint x="812.97" y="342.79" as="sourcePoint" />
            <mxPoint x="812.97" y="332.79" as="targetPoint" />
            <Array as="points" />
          </mxGeometry>
        </mxCell>
        <mxCell id="SgWflcFPjo7BXx8ql38D-195" value="CACHE" style="edgeLabel;html=1;align=center;verticalAlign=middle;resizable=0;points=[];" parent="SgWflcFPjo7BXx8ql38D-194" vertex="1" connectable="0">
          <mxGeometry x="-0.4421" relative="1" as="geometry">
            <mxPoint y="36" as="offset" />
          </mxGeometry>
        </mxCell>
        <mxCell id="SgWflcFPjo7BXx8ql38D-196" value="云储存DB Cluster" style="text;html=1;strokeColor=#82b366;fillColor=#d5e8d4;align=center;verticalAlign=middle;whiteSpace=wrap;rounded=0;fontSize=18;gradientColor=#97d077;" parent="1" vertex="1">
          <mxGeometry x="112.91000000000008" y="130" width="760.06" height="30" as="geometry" />
        </mxCell>
        <mxCell id="SgWflcFPjo7BXx8ql38D-199" value="MongoDB4 Shard" style="swimlane;fontStyle=0;childLayout=stackLayout;horizontal=1;startSize=26;horizontalStack=0;resizeParent=1;resizeParentMax=0;resizeLast=0;collapsible=1;marginBottom=0;align=center;fontSize=15;fillColor=#dae8fc;gradientColor=#7ea6e0;strokeColor=#6c8ebf;" parent="1" vertex="1">
          <mxGeometry x="-369.99999999999994" y="161.06974358974355" width="192.97" height="106.28545941123997" as="geometry" />
        </mxCell>
        <mxCell id="SgWflcFPjo7BXx8ql38D-200" value="测试/自建124.71.79.125:6100/DB6" style="text;strokeColor=#82b366;fillColor=#d5e8d4;spacingLeft=4;spacingRight=4;overflow=hidden;rotatable=0;points=[[0,0.5],[1,0.5]];portConstraint=eastwest;fontSize=10;gradientColor=#97d077;align=center;" parent="SgWflcFPjo7BXx8ql38D-199" vertex="1">
          <mxGeometry y="26" width="192.97" height="26.761819803746654" as="geometry" />
        </mxCell>
        <mxCell id="SgWflcFPjo7BXx8ql38D-201" value="生产自建139.159.225.230:6379/DB1" style="text;strokeColor=#6c8ebf;fillColor=#dae8fc;spacingLeft=4;spacingRight=4;overflow=hidden;rotatable=0;points=[[0,0.5],[1,0.5]];portConstraint=eastwest;fontSize=10;gradientColor=#7ea6e0;align=center;" parent="SgWflcFPjo7BXx8ql38D-199" vertex="1">
          <mxGeometry y="52.761819803746654" width="192.97" height="26.761819803746654" as="geometry" />
        </mxCell>
        <mxCell id="SgWflcFPjo7BXx8ql38D-202" value="MOB_PUSH_ALIAS" style="text;strokeColor=#d6b656;fillColor=#fff2cc;spacingLeft=4;spacingRight=4;overflow=hidden;rotatable=0;points=[[0,0.5],[1,0.5]];portConstraint=eastwest;fontSize=12;gradientColor=#ffd966;align=center;" parent="SgWflcFPjo7BXx8ql38D-199" vertex="1">
          <mxGeometry y="79.52363960749331" width="192.97" height="26.761819803746654" as="geometry" />
        </mxCell>
        <mxCell id="SgWflcFPjo7BXx8ql38D-203" value="Clickhouse Shard" style="swimlane;fontStyle=0;childLayout=stackLayout;horizontal=1;startSize=26;horizontalStack=0;resizeParent=1;resizeParentMax=0;resizeLast=0;collapsible=1;marginBottom=0;align=center;fontSize=15;fillColor=#dae8fc;gradientColor=#7ea6e0;strokeColor=#6c8ebf;" parent="1" vertex="1">
          <mxGeometry x="412.97" y="161.0697435897435" width="192.97" height="106.28545941123997" as="geometry" />
        </mxCell>
        <mxCell id="SgWflcFPjo7BXx8ql38D-204" value="测试/自建124.71.79.125:6100/DB6" style="text;strokeColor=#82b366;fillColor=#d5e8d4;spacingLeft=4;spacingRight=4;overflow=hidden;rotatable=0;points=[[0,0.5],[1,0.5]];portConstraint=eastwest;fontSize=10;gradientColor=#97d077;align=center;" parent="SgWflcFPjo7BXx8ql38D-203" vertex="1">
          <mxGeometry y="26" width="192.97" height="26.761819803746654" as="geometry" />
        </mxCell>
        <mxCell id="SgWflcFPjo7BXx8ql38D-205" value="生产自建139.159.225.230:6379/DB1" style="text;strokeColor=#6c8ebf;fillColor=#dae8fc;spacingLeft=4;spacingRight=4;overflow=hidden;rotatable=0;points=[[0,0.5],[1,0.5]];portConstraint=eastwest;fontSize=10;gradientColor=#7ea6e0;align=center;" parent="SgWflcFPjo7BXx8ql38D-203" vertex="1">
          <mxGeometry y="52.761819803746654" width="192.97" height="26.761819803746654" as="geometry" />
        </mxCell>
        <mxCell id="SgWflcFPjo7BXx8ql38D-206" value="MOB_PUSH_ALIAS" style="text;strokeColor=#d6b656;fillColor=#fff2cc;spacingLeft=4;spacingRight=4;overflow=hidden;rotatable=0;points=[[0,0.5],[1,0.5]];portConstraint=eastwest;fontSize=12;gradientColor=#ffd966;align=center;" parent="SgWflcFPjo7BXx8ql38D-203" vertex="1">
          <mxGeometry y="79.52363960749331" width="192.97" height="26.761819803746654" as="geometry" />
        </mxCell>
        <mxCell id="T9S2wv6sfkyYEJ1dbLHQ-104" value="" style="rounded=0;whiteSpace=wrap;html=1;fillColor=#fff2cc;gradientColor=#ffd966;strokeColor=#d6b656;" vertex="1" parent="1">
          <mxGeometry x="112.91" y="480" width="730" height="330" as="geometry" />
        </mxCell>
        <mxCell id="T9S2wv6sfkyYEJ1dbLHQ-105" value="实时监听" style="shape=rhombus;perimeter=rhombusPerimeter;whiteSpace=wrap;html=1;align=center;fillColor=#f8cecc;gradientColor=#ea6b66;strokeColor=#b85450;" vertex="1" parent="1">
          <mxGeometry x="443.39" y="676.4300000000001" width="120" height="60" as="geometry" />
        </mxCell>
        <mxCell id="T9S2wv6sfkyYEJ1dbLHQ-106" value="MySql8主备  " style="swimlane;fontStyle=0;childLayout=stackLayout;horizontal=1;startSize=26;horizontalStack=0;resizeParent=1;resizeParentMax=0;resizeLast=0;collapsible=1;marginBottom=0;align=center;fontSize=15;fillColor=#dae8fc;gradientColor=#7ea6e0;strokeColor=#6c8ebf;" vertex="1" parent="1">
          <mxGeometry x="122.91" y="511.06999999999994" width="222.97" height="159.80909901873326" as="geometry" />
        </mxCell>
        <mxCell id="T9S2wv6sfkyYEJ1dbLHQ-107" value="暂无" style="text;strokeColor=#82b366;fillColor=#d5e8d4;spacingLeft=4;spacingRight=4;overflow=hidden;rotatable=0;points=[[0,0.5],[1,0.5]];portConstraint=eastwest;fontSize=10;gradientColor=#97d077;align=center;" vertex="1" parent="T9S2wv6sfkyYEJ1dbLHQ-106">
          <mxGeometry y="26" width="222.97" height="26.761819803746654" as="geometry" />
        </mxCell>
        <mxCell id="T9S2wv6sfkyYEJ1dbLHQ-108" value="生产云托管139.9.214.220:6017/licensed" style="text;strokeColor=#6c8ebf;fillColor=#dae8fc;spacingLeft=4;spacingRight=4;overflow=hidden;rotatable=0;points=[[0,0.5],[1,0.5]];portConstraint=eastwest;fontSize=10;gradientColor=#7ea6e0;align=center;" vertex="1" parent="T9S2wv6sfkyYEJ1dbLHQ-106">
          <mxGeometry y="52.761819803746654" width="222.97" height="26.761819803746654" as="geometry" />
        </mxCell>
        <mxCell id="T9S2wv6sfkyYEJ1dbLHQ-109" value="当前设备心跳" style="text;strokeColor=#82b366;fillColor=#d5e8d4;spacingLeft=4;spacingRight=4;overflow=hidden;rotatable=0;points=[[0,0.5],[1,0.5]];portConstraint=eastwest;fontSize=12;gradientColor=#97d077;align=center;" vertex="1" parent="T9S2wv6sfkyYEJ1dbLHQ-106">
          <mxGeometry y="79.52363960749331" width="222.97" height="26.761819803746654" as="geometry" />
        </mxCell>
        <mxCell id="T9S2wv6sfkyYEJ1dbLHQ-110" value="重号设备" style="text;strokeColor=#b85450;fillColor=#f8cecc;spacingLeft=4;spacingRight=4;overflow=hidden;rotatable=0;points=[[0,0.5],[1,0.5]];portConstraint=eastwest;fontSize=12;gradientColor=#ea6b66;align=center;" vertex="1" parent="T9S2wv6sfkyYEJ1dbLHQ-106">
          <mxGeometry y="106.28545941123997" width="222.97" height="26.761819803746654" as="geometry" />
        </mxCell>
        <mxCell id="T9S2wv6sfkyYEJ1dbLHQ-111" value="设备心跳日志" style="text;strokeColor=#d6b656;fillColor=#fff2cc;spacingLeft=4;spacingRight=4;overflow=hidden;rotatable=0;points=[[0,0.5],[1,0.5]];portConstraint=eastwest;fontSize=12;gradientColor=#ffd966;align=center;" vertex="1" parent="T9S2wv6sfkyYEJ1dbLHQ-106">
          <mxGeometry y="133.04727921498662" width="222.97" height="26.761819803746654" as="geometry" />
        </mxCell>
        <mxCell id="T9S2wv6sfkyYEJ1dbLHQ-124" style="edgeStyle=orthogonalEdgeStyle;rounded=0;orthogonalLoop=1;jettySize=auto;html=1;entryX=0.5;entryY=1;entryDx=0;entryDy=0;" edge="1" parent="1" source="T9S2wv6sfkyYEJ1dbLHQ-125" target="T9S2wv6sfkyYEJ1dbLHQ-105">
          <mxGeometry relative="1" as="geometry" />
        </mxCell>
        <mxCell id="T9S2wv6sfkyYEJ1dbLHQ-125" value="UDP推送" style="whiteSpace=wrap;html=1;align=center;fillColor=#dae8fc;gradientColor=#7ea6e0;strokeColor=#6c8ebf;" vertex="1" parent="1">
          <mxGeometry x="453.39" y="761.9300000000001" width="100" height="40" as="geometry" />
        </mxCell>
        <mxCell id="T9S2wv6sfkyYEJ1dbLHQ-126" value="Redis5 Cluster " style="swimlane;fontStyle=0;childLayout=stackLayout;horizontal=1;startSize=26;horizontalStack=0;resizeParent=1;resizeParentMax=0;resizeLast=0;collapsible=1;marginBottom=0;align=center;fontSize=15;fillColor=#f8cecc;gradientColor=#ea6b66;strokeColor=#b85450;" vertex="1" parent="1">
          <mxGeometry x="632.91" y="511.06974358974367" width="192.97" height="106.28545941123997" as="geometry" />
        </mxCell>
        <mxCell id="T9S2wv6sfkyYEJ1dbLHQ-127" value="规划中" style="text;strokeColor=#82b366;fillColor=#d5e8d4;spacingLeft=4;spacingRight=4;overflow=hidden;rotatable=0;points=[[0,0.5],[1,0.5]];portConstraint=eastwest;fontSize=10;gradientColor=#97d077;align=center;" vertex="1" parent="T9S2wv6sfkyYEJ1dbLHQ-126">
          <mxGeometry y="26" width="192.97" height="26.761819803746654" as="geometry" />
        </mxCell>
        <mxCell id="T9S2wv6sfkyYEJ1dbLHQ-128" value="规划中" style="text;strokeColor=#b85450;fillColor=#f8cecc;spacingLeft=4;spacingRight=4;overflow=hidden;rotatable=0;points=[[0,0.5],[1,0.5]];portConstraint=eastwest;fontSize=10;gradientColor=#ea6b66;align=center;" vertex="1" parent="T9S2wv6sfkyYEJ1dbLHQ-126">
          <mxGeometry y="52.761819803746654" width="192.97" height="26.761819803746654" as="geometry" />
        </mxCell>
        <mxCell id="T9S2wv6sfkyYEJ1dbLHQ-129" value="" style="text;strokeColor=#d6b656;fillColor=#fff2cc;spacingLeft=4;spacingRight=4;overflow=hidden;rotatable=0;points=[[0,0.5],[1,0.5]];portConstraint=eastwest;fontSize=12;gradientColor=#ffd966;align=center;" vertex="1" parent="T9S2wv6sfkyYEJ1dbLHQ-126">
          <mxGeometry y="79.52363960749331" width="192.97" height="26.761819803746654" as="geometry" />
        </mxCell>
        <mxCell id="T9S2wv6sfkyYEJ1dbLHQ-130" value="" style="edgeStyle=elbowEdgeStyle;elbow=vertical;endArrow=classic;html=1;curved=0;rounded=0;endSize=8;startSize=8;exitX=0;exitY=0.5;exitDx=0;exitDy=0;entryX=0.493;entryY=0.967;entryDx=0;entryDy=0;entryPerimeter=0;" edge="1" parent="1" source="T9S2wv6sfkyYEJ1dbLHQ-105" target="T9S2wv6sfkyYEJ1dbLHQ-111">
          <mxGeometry width="50" height="50" relative="1" as="geometry">
            <mxPoint x="212.91" y="460" as="sourcePoint" />
            <mxPoint x="372.90999999999997" y="670" as="targetPoint" />
            <Array as="points">
              <mxPoint x="342.90999999999997" y="706" />
              <mxPoint x="462.90999999999997" y="750" />
            </Array>
          </mxGeometry>
        </mxCell>
        <mxCell id="T9S2wv6sfkyYEJ1dbLHQ-131" value="DB" style="edgeLabel;html=1;align=center;verticalAlign=middle;resizable=0;points=[];" vertex="1" connectable="0" parent="T9S2wv6sfkyYEJ1dbLHQ-130">
          <mxGeometry x="-0.2854" relative="1" as="geometry">
            <mxPoint x="-18" as="offset" />
          </mxGeometry>
        </mxCell>
        <mxCell id="T9S2wv6sfkyYEJ1dbLHQ-132" value="" style="edgeStyle=elbowEdgeStyle;elbow=vertical;endArrow=classic;html=1;curved=0;rounded=0;endSize=8;startSize=8;exitX=1;exitY=0.5;exitDx=0;exitDy=0;entryX=0.503;entryY=1.024;entryDx=0;entryDy=0;entryPerimeter=0;" edge="1" parent="1" source="T9S2wv6sfkyYEJ1dbLHQ-105" target="T9S2wv6sfkyYEJ1dbLHQ-129">
          <mxGeometry width="50" height="50" relative="1" as="geometry">
            <mxPoint x="552.91" y="460" as="sourcePoint" />
            <mxPoint x="492.90999999999997" y="630" as="targetPoint" />
            <Array as="points">
              <mxPoint x="712.91" y="706" />
            </Array>
          </mxGeometry>
        </mxCell>
        <mxCell id="T9S2wv6sfkyYEJ1dbLHQ-133" value="CACHE" style="edgeLabel;html=1;align=center;verticalAlign=middle;resizable=0;points=[];" vertex="1" connectable="0" parent="T9S2wv6sfkyYEJ1dbLHQ-132">
          <mxGeometry x="-0.4421" relative="1" as="geometry">
            <mxPoint as="offset" />
          </mxGeometry>
        </mxCell>
        <mxCell id="T9S2wv6sfkyYEJ1dbLHQ-134" value="心跳-通知DB Cluster" style="text;html=1;strokeColor=#d6b656;fillColor=#fff2cc;align=center;verticalAlign=middle;whiteSpace=wrap;rounded=0;fontSize=18;gradientColor=#ffd966;" vertex="1" parent="1">
          <mxGeometry x="112.91" y="480" width="730" height="30" as="geometry" />
        </mxCell>
        <mxCell id="T9S2wv6sfkyYEJ1dbLHQ-135" value="Mqtt/Kafka Cluster" style="swimlane;fontStyle=0;childLayout=stackLayout;horizontal=1;startSize=26;horizontalStack=0;resizeParent=1;resizeParentMax=0;resizeLast=0;collapsible=1;marginBottom=0;align=center;fontSize=15;fillColor=#f8cecc;gradientColor=#ea6b66;strokeColor=#b85450;" vertex="1" parent="1">
          <mxGeometry x="396.4200000000001" y="509.99974358974373" width="192.97" height="106.28545941123997" as="geometry" />
        </mxCell>
        <mxCell id="T9S2wv6sfkyYEJ1dbLHQ-136" value="规划中" style="text;strokeColor=#82b366;fillColor=#d5e8d4;spacingLeft=4;spacingRight=4;overflow=hidden;rotatable=0;points=[[0,0.5],[1,0.5]];portConstraint=eastwest;fontSize=10;gradientColor=#97d077;align=center;" vertex="1" parent="T9S2wv6sfkyYEJ1dbLHQ-135">
          <mxGeometry y="26" width="192.97" height="26.761819803746654" as="geometry" />
        </mxCell>
        <mxCell id="T9S2wv6sfkyYEJ1dbLHQ-137" value="规划中" style="text;strokeColor=#b85450;fillColor=#f8cecc;spacingLeft=4;spacingRight=4;overflow=hidden;rotatable=0;points=[[0,0.5],[1,0.5]];portConstraint=eastwest;fontSize=10;gradientColor=#ea6b66;align=center;" vertex="1" parent="T9S2wv6sfkyYEJ1dbLHQ-135">
          <mxGeometry y="52.761819803746654" width="192.97" height="26.761819803746654" as="geometry" />
        </mxCell>
        <mxCell id="T9S2wv6sfkyYEJ1dbLHQ-138" value="" style="text;strokeColor=#d6b656;fillColor=#fff2cc;spacingLeft=4;spacingRight=4;overflow=hidden;rotatable=0;points=[[0,0.5],[1,0.5]];portConstraint=eastwest;fontSize=12;gradientColor=#ffd966;align=center;" vertex="1" parent="T9S2wv6sfkyYEJ1dbLHQ-135">
          <mxGeometry y="79.52363960749331" width="192.97" height="26.761819803746654" as="geometry" />
        </mxCell>
        <mxCell id="T9S2wv6sfkyYEJ1dbLHQ-140" value="" style="edgeStyle=elbowEdgeStyle;elbow=horizontal;endArrow=classic;html=1;curved=0;rounded=0;endSize=8;startSize=8;exitX=0.5;exitY=0;exitDx=0;exitDy=0;entryX=0.547;entryY=1.027;entryDx=0;entryDy=0;entryPerimeter=0;" edge="1" parent="1" source="T9S2wv6sfkyYEJ1dbLHQ-105" target="T9S2wv6sfkyYEJ1dbLHQ-138">
          <mxGeometry width="50" height="50" relative="1" as="geometry">
            <mxPoint x="672.91" y="910" as="sourcePoint" />
            <mxPoint x="502.90999999999997" y="630" as="targetPoint" />
            <Array as="points">
              <mxPoint x="502.90999999999997" y="650" />
            </Array>
          </mxGeometry>
        </mxCell>
        <mxCell id="T9S2wv6sfkyYEJ1dbLHQ-141" value="Message Queue&amp;nbsp;" style="edgeLabel;html=1;align=center;verticalAlign=middle;resizable=0;points=[];" vertex="1" connectable="0" parent="T9S2wv6sfkyYEJ1dbLHQ-140">
          <mxGeometry x="-0.0492" relative="1" as="geometry">
            <mxPoint x="10" y="12" as="offset" />
          </mxGeometry>
        </mxCell>
        <mxCell id="T9S2wv6sfkyYEJ1dbLHQ-142" value="Data PRC" style="edgeLabel;html=1;align=center;verticalAlign=middle;resizable=0;points=[];" vertex="1" connectable="0" parent="T9S2wv6sfkyYEJ1dbLHQ-140">
          <mxGeometry x="0.6381" y="-1" relative="1" as="geometry">
            <mxPoint y="18" as="offset" />
          </mxGeometry>
        </mxCell>
      </root>
    </mxGraphModel>
  </diagram>
</mxfile>
